<svg width="24" height="24" viewBox="0 0 24 24" fill="none" xmlns="http://www.w3.org/2000/svg">
<g clip-path="url(#clip0_54538_83378)">
<path fill-rule="evenodd" clip-rule="evenodd" d="M12.5243 3H19.7143C20.0553 3 20.3823 3.13546 20.6234 3.37658C20.8645 3.61769 21 3.94472 21 4.28571V11.4757C21 12.1479 20.7368 12.7933 20.2668 13.2738L13.63 20.0586C12.3748 21.3138 10.3396 21.3138 9.08429 20.0585L3.94144 14.9157C2.68619 13.6604 2.68619 11.6253 3.94144 10.37L3.95147 10.36L10.7262 3.73321C11.2067 3.26319 11.8521 3 12.5243 3ZM16.5 9.42856C17.5651 9.42856 18.4286 8.56511 18.4286 7.49999C18.4286 6.43487 17.5651 5.57142 16.5 5.57142C15.4349 5.57142 14.5714 6.43487 14.5714 7.49999C14.5714 8.56511 15.4349 9.42856 16.5 9.42856Z" fill="#36404C"/>
<path d="M18 25C21.866 25 25 21.866 25 18C25 14.134 21.866 11 18 11C14.134 11 11 14.134 11 18C11 21.866 14.134 25 18 25Z" fill="#36404C" stroke="#F8F8F8" stroke-width="2" stroke-linejoin="round"/>
<path d="M16 18H20" stroke="white" stroke-width="2" stroke-linecap="round"/>
</g>
<defs>
<clipPath id="clip0_54538_83378">
<rect width="24" height="24" fill="white"/>
</clipPath>
</defs>
</svg>
